<svg xmlns="http://www.w3.org/2000/svg" xmlns:xlink="http://www.w3.org/1999/xlink" width="1341" zoomAndPan="magnify" viewBox="0 0 1006.5 1289.99994" height="1719" preserveAspectRatio="xMidYMid meet" version="1.0"><defs><clipPath id="f9203b2a14"><path d="M 0 0.320312 L 1006 0.320312 L 1006 1289.679688 L 0 1289.679688 Z M 0 0.320312 " clip-rule="nonzero"/></clipPath></defs><g clip-path="url(#f9203b2a14)"><path fill="#ffffff" d="M 0 0.320312 L 1006 0.320312 L 1006 1289.679688 L 0 1289.679688 Z M 0 0.320312 " fill-opacity="1" fill-rule="nonzero"/><path fill="#ffffff" d="M 0 0.320312 L 1006 0.320312 L 1006 1289.679688 L 0 1289.679688 Z M 0 0.320312 " fill-opacity="1" fill-rule="nonzero"/><path fill="#000000" d="M -100.0625 629.609375 L -100.0625 1312.519531 L 1079.851562 1312.519531 L 1079.851562 -53.300781 L -100.0625 -53.300781 Z M 396.742188 253.664062 L 400.195312 384.726562 L 434.695312 384.726562 L 436.765625 258.492188 C 438.835938 117.082031 438.835938 117.082031 487.824219 133.636719 C 506.457031 139.15625 517.496094 148.121094 522.324219 159.847656 C 525.777344 169.507812 532.675781 241.246094 536.125 319.195312 C 545.785156 497.855469 543.714844 506.132812 481.613281 565.457031 L 436.765625 608.226562 L 445.734375 682.722656 C 450.566406 723.421875 454.703125 833.101562 454.703125 926.226562 C 455.394531 1080.742188 454.015625 1097.300781 441.59375 1122.820312 C 414.683594 1178.007812 373.285156 1190.421875 333.953125 1155.242188 C 317.394531 1140.757812 310.492188 1126.269531 302.902344 1088.332031 C 291.171875 1032.457031 289.101562 866.902344 299.453125 788.265625 C 303.59375 759.984375 307.042969 705.488281 307.042969 667.546875 L 307.042969 598.566406 L 267.023438 559.25 C 205.613281 500.613281 202.851562 477.160156 221.480469 229.519531 C 227.003906 152.261719 228.382812 148.121094 255.984375 136.394531 C 308.421875 115.011719 307.042969 112.253906 307.042969 239.175781 C 307.042969 364.722656 311.875 390.246094 336.714844 386.796875 C 351.894531 384.726562 351.894531 383.347656 353.964844 260.5625 C 354.652344 192.269531 356.722656 132.257812 358.792969 127.429688 C 360.863281 122.597656 369.144531 119.148438 377.425781 120.53125 C 393.292969 122.597656 393.292969 123.980469 396.742188 253.664062 Z M 701.039062 143.984375 C 741.746094 168.125 791.429688 224.691406 810.058594 267.460938 C 821.789062 293.671875 835.589844 348.167969 841.800781 388.867188 C 848.699219 435.082031 829.378906 502.683594 782.457031 595.117188 C 746.578125 664.789062 741.746094 679.273438 741.746094 714.457031 C 741.746094 736.527344 745.199219 761.363281 750.027344 769.640625 C 774.867188 815.855469 783.839844 960.71875 766.589844 1046.941406 C 754.167969 1110.40625 737.609375 1144.207031 709.316406 1160.761719 C 678.265625 1179.386719 656.1875 1178.007812 635.488281 1157.3125 C 611.335938 1133.167969 607.886719 1073.15625 618.238281 877.941406 C 623.066406 788.953125 627.898438 585.460938 629.277344 426.113281 C 632.035156 143.984375 634.105469 119.148438 653.425781 119.148438 C 657.566406 119.148438 678.957031 130.1875 701.039062 143.984375 Z M 701.039062 143.984375 " fill-opacity="1" fill-rule="nonzero"/></g></svg>